<svg width="28" height="28" viewBox="0 0 28 28" fill="none" xmlns="http://www.w3.org/2000/svg">
<path d="M14 19.3333C18.8023 19.3333 21.4426 13.0413 21.9207 4.79953C21.9598 4.12499 21.9794 3.78772 21.8924 3.47078C21.723 2.85339 21.2103 2.31006 20.6038 2.10518C20.2924 2 19.9283 2 19.2 2H8.8C8.07175 2 7.70762 2 7.39624 2.10518C6.7897 2.31006 6.27698 2.85339 6.10757 3.47078C6.0206 3.78772 6.04017 4.12499 6.0793 4.79953C6.55743 13.0413 9.19766 19.3333 14 19.3333Z" fill="#50C3A0"/>
<path d="M7.33333 6.66666C6 5.33335 2 5.99998 2 8.66665C2 11.3333 6 14 9.33333 14" stroke="#50C3A0" stroke-width="1.8" stroke-linejoin="round"/>
<path d="M20.6667 6.66666C22 5.33335 26 5.99998 26 8.66665C26 11.3333 22 14 18.6667 14" stroke="#50C3A0" stroke-width="1.8" stroke-linejoin="round"/>
<path d="M10 24.8L10 26H18L18 24.8C18 22.6667 16 22.3333 16 18H12C12 22.3333 10 22.6667 10 24.8Z" fill="#50C3A0"/>
</svg>
